<svg xmlns="http://www.w3.org/2000/svg" width="495.29" height="495.29" viewBox="0 0 495.29 495.29"><path d="M62.52,310.12C58.72,303.2,56.3,286.6,57,271c2.07-3.46,9.68-3.8,11.76-.69,4.5,14.18,17.64,34.59,35.28,34.59,10.38,0,18-6.22,18-18C122,274.15,111,266.88,99.19,261c-20.76-10.38-35.63-22.83-35.63-43.58,0-30.1,25.25-44.62,55-44.62,17.64,0,33.21,4.49,37,7.26,3.46,7.61,5.19,21.45,5.19,34.59-1.38,3.81-10,3.81-12.11,1.38-6.92-20.06-15.56-27.32-27-27.32-10,0-17.29,5.88-17.29,15.22,0,7.95,6.57,14.53,22.13,22.14C150,237.48,164.56,252,164.56,274.49c-.34,30.79-26.63,46.35-59.15,46.35C85.7,320.84,71.86,317.38,62.52,310.12Z" transform="translate(-2.36 -2.36)"/><path d="M201.57,223.64c0-13.83,0-18-6.57-22.13l-4.84-3.12c-2.42-2.07-2.42-8.3,0-10.37,15.91-4.5,40.47-13.84,51.19-20.07a7,7,0,0,1,6.23,3.12c0,4.84-1,13.14-1,15.56,0,2.08.69,2.77,1.73,2.77s4.49-1.73,6.57-2.77c7.61-4.49,23.17-13.83,39.78-13.83,12.45,0,23.17,4.15,31.13,13.14,4.15,4.84,6.23,6.23,8.3,6.23,1.38,0,4.5-2.42,11.07-5.88,7.61-4.15,20.75-13.49,39.43-13.49,27.33,0,41.86,19.71,41.86,43.58v59.5c0,24.21,1.38,27,12.8,28.36l5.53.69c2.77,2.08,2.77,10-.35,12.11-10.72-.69-23.86-1-40.47-1-13.83,0-28.36.35-37.7,1-3.11-2.08-3.11-10-.35-12.11l5.54-.69c8.65-1,10-4.15,10-23.18v-58.8c0-13.14-7.26-24.21-23.18-24.21-9.68,0-16.94,4.49-19.37,8.65-1.38,2.07-2.42,5.53-2.42,10.37v64c0,19,1.39,22.14,9.34,23.18l5.54.69c2.76,2.08,2.76,10-.35,12.11-10.72-.69-21.79-1-37.36-1-13.83,0-27.67.35-36.66,1-3.12-2.08-3.12-10-.35-12.11l5.54-.69c7.95-1,9.33-4.15,9.33-23.18v-58.8c0-13.14-6.91-24.21-23.52-24.21-9,0-15.91,4.49-18.67,8.3-2.08,2.42-2.77,6.57-2.77,12.8v61.91c0,19,1.38,22.14,10,23.18l5.53.69c2.77,2.08,2.77,10-.34,12.11-10.73-.69-21.79-1-38.4-1-15.56,0-29.05.35-39.43,1-3.46-2.08-3.46-10-.69-12.11l5.53-.69c11.42-1.38,12.8-4.15,12.8-28.36Z" transform="translate(-2.36 -2.36)"/><circle cx="247.64" cy="247.64" r="240.14" fill="none" stroke="#000" stroke-miterlimit="10" stroke-width="15"/></svg>